<svg width="191" height="30" viewBox="0 0 191 30" fill="none" xmlns="http://www.w3.org/2000/svg">
<path d="M43 24V2.99999H48.55V10.8H56.65V2.99999H62.2V24H56.65V15.9H48.55V24H43Z" fill="white"/>
<path d="M65.4859 4.19999C65.4859 3.47999 65.7559 2.87999 66.2959 2.39999C66.8359 1.89999 67.5159 1.64999 68.3359 1.64999C69.1559 1.64999 69.8359 1.89999 70.3759 2.39999C70.9159 2.87999 71.1859 3.47999 71.1859 4.19999C71.1859 4.9 70.9159 5.5 70.3759 5.99999C69.8359 6.49999 69.1559 6.74999 68.3359 6.74999C67.5159 6.74999 66.8359 6.49999 66.2959 5.99999C65.7559 5.5 65.4859 4.9 65.4859 4.19999ZM65.7859 24V8.39999H70.8859V24H65.7859Z" fill="white"/>
<path d="M75.4541 21.63C74.1141 20.15 73.4441 18.24 73.4441 15.9C73.4441 13.56 74.1141 11.65 75.4541 10.17C76.7941 8.68999 78.4241 7.94999 80.3441 7.94999C81.7241 7.94999 82.9141 8.34999 83.9141 9.14999C84.3741 9.50999 84.7341 9.90999 84.9941 10.35H85.2941V8.39999H90.3941V29.7H75.5441V25.65H85.2941V21.6H84.9941C84.7141 22.04 84.3541 22.42 83.9141 22.74C82.9341 23.48 81.7441 23.85 80.3441 23.85C78.4241 23.85 76.7941 23.11 75.4541 21.63ZM79.5941 13.26C78.9941 13.9 78.6941 14.78 78.6941 15.9C78.6941 17.02 78.9941 17.9 79.5941 18.54C80.1941 19.18 80.9941 19.5 81.9941 19.5C82.9941 19.5 83.7941 19.18 84.3941 18.54C84.9941 17.9 85.2941 17.02 85.2941 15.9C85.2941 14.78 84.9941 13.9 84.3941 13.26C83.7941 12.62 82.9941 12.3 81.9941 12.3C80.9941 12.3 80.1941 12.62 79.5941 13.26Z" fill="white"/>
<path d="M93.3801 24V2.99999H98.4801V10.5H98.7801C99.0601 10.02 99.4201 9.6 99.8601 9.24C100.88 8.38 102.07 7.94999 103.43 7.94999C105.27 7.94999 106.7 8.50999 107.72 9.62999C108.76 10.73 109.28 12.32 109.28 14.4V24H104.18V15.15C104.18 14.25 103.94 13.55 103.46 13.05C102.98 12.55 102.32 12.3 101.48 12.3C100.62 12.3 99.9001 12.62 99.3201 13.26C98.7601 13.88 98.4801 14.71 98.4801 15.75V24H93.3801Z" fill="white"/>
<path d="M120.538 29.7V8.39999H125.638V10.5H125.938C126.218 10.04 126.598 9.62 127.078 9.24C128.178 8.38 129.348 7.94999 130.588 7.94999C132.508 7.94999 134.138 8.71 135.478 10.23C136.818 11.73 137.488 13.72 137.488 16.2C137.488 18.68 136.818 20.68 135.478 22.2C134.138 23.7 132.508 24.45 130.588 24.45C129.328 24.45 128.158 24.03 127.078 23.19C126.598 22.81 126.218 22.38 125.938 21.9H125.638V29.7H120.538ZM126.538 13.32C125.938 14 125.638 14.96 125.638 16.2C125.638 17.44 125.938 18.4 126.538 19.08C127.138 19.76 127.938 20.1 128.938 20.1C129.938 20.1 130.738 19.76 131.338 19.08C131.938 18.4 132.238 17.44 132.238 16.2C132.238 14.96 131.938 14 131.338 13.32C130.738 12.64 129.938 12.3 128.938 12.3C127.938 12.3 127.138 12.64 126.538 13.32Z" fill="white"/>
<path d="M141.284 22.2C139.944 20.68 139.274 18.68 139.274 16.2C139.274 13.72 139.944 11.73 141.284 10.23C142.624 8.71 144.254 7.94999 146.174 7.94999C147.414 7.94999 148.584 8.38 149.684 9.24C150.144 9.62 150.524 10.04 150.824 10.5H151.124V8.39999H156.224V24H151.124V21.9H150.824C150.544 22.38 150.164 22.81 149.684 23.19C148.604 24.03 147.434 24.45 146.174 24.45C144.254 24.45 142.624 23.7 141.284 22.2ZM145.424 13.32C144.824 14 144.524 14.96 144.524 16.2C144.524 17.44 144.824 18.4 145.424 19.08C146.024 19.76 146.824 20.1 147.824 20.1C148.824 20.1 149.624 19.76 150.224 19.08C150.824 18.4 151.124 17.44 151.124 16.2C151.124 14.96 150.824 14 150.224 13.32C149.624 12.64 148.824 12.3 147.824 12.3C146.824 12.3 146.024 12.64 145.424 13.32Z" fill="white"/>
<path d="M158.31 18.9H163.41C163.49 19.2 163.66 19.48 163.92 19.74C164.46 20.28 165.24 20.55 166.26 20.55C167.66 20.55 168.36 20.2 168.36 19.5C168.36 19.18 168.16 18.93 167.76 18.75C167.36 18.55 166.76 18.35 165.96 18.15C165.3 17.99 164.87 17.89 164.67 17.85C164.47 17.81 164.05 17.7 163.41 17.52C162.77 17.32 162.31 17.15 162.03 17.01C161.77 16.85 161.4 16.63 160.92 16.35C160.46 16.05 160.12 15.75 159.9 15.45C159.7 15.13 159.51 14.74 159.33 14.28C159.15 13.8 159.06 13.29 159.06 12.75C159.06 11.43 159.65 10.3 160.83 9.35999C162.01 8.41999 163.67 7.94999 165.81 7.94999C168.49 7.94999 170.61 8.82999 172.17 10.59C172.79 11.35 173.22 12.22 173.46 13.2H168.51C168.39 12.88 168.25 12.63 168.09 12.45C167.63 11.95 166.97 11.7 166.11 11.7C164.91 11.7 164.31 12.05 164.31 12.75C164.31 13.09 164.51 13.35 164.91 13.53C165.31 13.71 165.92 13.88 166.74 14.04C168.8 14.52 170.19 14.94 170.91 15.3C172.71 16.18 173.61 17.53 173.61 19.35C173.61 20.79 172.97 22 171.69 22.98C170.43 23.96 168.62 24.45 166.26 24.45C163.36 24.45 161.15 23.53 159.63 21.69C158.95 20.87 158.51 19.94 158.31 18.9Z" fill="white"/>
<path d="M174.951 18.9H180.051C180.131 19.2 180.301 19.48 180.561 19.74C181.101 20.28 181.881 20.55 182.901 20.55C184.301 20.55 185.001 20.2 185.001 19.5C185.001 19.18 184.801 18.93 184.401 18.75C184.001 18.55 183.401 18.35 182.601 18.15C181.941 17.99 181.511 17.89 181.311 17.85C181.111 17.81 180.691 17.7 180.051 17.52C179.411 17.32 178.951 17.15 178.671 17.01C178.411 16.85 178.041 16.63 177.561 16.35C177.101 16.05 176.761 15.75 176.541 15.45C176.341 15.13 176.151 14.74 175.971 14.28C175.791 13.8 175.701 13.29 175.701 12.75C175.701 11.43 176.291 10.3 177.471 9.35999C178.651 8.41999 180.311 7.94999 182.451 7.94999C185.131 7.94999 187.251 8.82999 188.811 10.59C189.431 11.35 189.861 12.22 190.101 13.2H185.151C185.031 12.88 184.891 12.63 184.731 12.45C184.271 11.95 183.611 11.7 182.751 11.7C181.551 11.7 180.951 12.05 180.951 12.75C180.951 13.09 181.151 13.35 181.551 13.53C181.951 13.71 182.561 13.88 183.381 14.04C185.441 14.52 186.831 14.94 187.551 15.3C189.351 16.18 190.251 17.53 190.251 19.35C190.251 20.79 189.611 22 188.331 22.98C187.071 23.96 185.261 24.45 182.901 24.45C180.001 24.45 177.791 23.53 176.271 21.69C175.591 20.87 175.151 19.94 174.951 18.9Z" fill="white"/>
<path fill-rule="evenodd" clip-rule="evenodd" d="M6 6V24H24L6 6ZM0 0V30H30V0H0Z" fill="#FF6E30"/>
</svg>
