<svg width="106" height="15" viewBox="0 0 106 15" fill="none" xmlns="http://www.w3.org/2000/svg">
<path d="M10.0645 0.722656V3.83789H4.41992V15H0.542969V0.722656H10.0645ZM22.4668 5.26367C22.4668 6.85872 21.9948 8.09245 21.0508 8.96484C20.1133 9.83073 18.7786 10.2637 17.0469 10.2637H15.9629V15H12.1055V0.722656H17.0469C18.8503 0.722656 20.2044 1.11654 21.1094 1.9043C22.0143 2.69206 22.4668 3.81185 22.4668 5.26367ZM15.9629 7.11914H16.666C17.2454 7.11914 17.7044 6.95638 18.043 6.63086C18.388 6.30534 18.5605 5.85612 18.5605 5.2832C18.5605 4.31966 18.0267 3.83789 16.959 3.83789H15.9629V7.11914ZM33.502 15L32.7988 12.3242H28.1602L27.4375 15H23.1992L27.8574 0.664062H33.0039L37.7207 15H33.502ZM31.998 9.16016L31.3828 6.81641C31.2396 6.29557 31.0638 5.62174 30.8555 4.79492C30.6536 3.9681 30.5202 3.37565 30.4551 3.01758C30.3965 3.34961 30.2793 3.89648 30.1035 4.6582C29.9342 5.41992 29.5534 6.92057 28.9609 9.16016H31.998ZM51.5098 15H47.6328V9.17969H43.1504V15H39.2734V0.722656H43.1504V6.01562H47.6328V0.722656H51.5098V15ZM53.4824 11.1621V8.11523H59V11.1621H53.4824ZM67.1934 15L64.2734 4.7168H64.1855C64.3223 6.4681 64.3906 7.82878 64.3906 8.79883V15H60.9727V0.722656H66.1094L69.0879 10.8594H69.166L72.0859 0.722656H77.2324V15H73.6875V8.74023C73.6875 8.41471 73.6908 8.05339 73.6973 7.65625C73.7103 7.25911 73.7559 6.28581 73.834 4.73633H73.7461L70.8652 15H67.1934ZM89.0684 15L88.3652 12.3242H83.7266L83.0039 15H78.7656L83.4238 0.664062H88.5703L93.2871 15H89.0684ZM87.5645 9.16016L86.9492 6.81641C86.806 6.29557 86.6302 5.62174 86.4219 4.79492C86.2201 3.9681 86.0866 3.37565 86.0215 3.01758C85.9629 3.34961 85.8457 3.89648 85.6699 4.6582C85.5007 5.41992 85.1198 6.92057 84.5273 9.16016H87.5645ZM105.201 5.26367C105.201 6.85872 104.729 8.09245 103.785 8.96484C102.848 9.83073 101.513 10.2637 99.7812 10.2637H98.6973V15H94.8398V0.722656H99.7812C101.585 0.722656 102.939 1.11654 103.844 1.9043C104.749 2.69206 105.201 3.81185 105.201 5.26367ZM98.6973 7.11914H99.4004C99.9798 7.11914 100.439 6.95638 100.777 6.63086C101.122 6.30534 101.295 5.85612 101.295 5.2832C101.295 4.31966 100.761 3.83789 99.6934 3.83789H98.6973V7.11914Z" fill="#282828"/>
</svg>
